<mxfile host="app.diagrams.net" modified="2021-02-27T16:11:50.504Z" agent="5.0 (Macintosh; Intel Mac OS X 10_15_7) AppleWebKit/537.36 (KHTML, like Gecko) Chrome/88.0.4324.152 Safari/537.36" etag="T8pohANRHosZYZ9O7oyp" version="14.4.2" type="github">
  <diagram name="Page-1" id="929967ad-93f9-6ef4-fab6-5d389245f69c">
    <mxGraphModel dx="1591" dy="1037" grid="1" gridSize="10" guides="1" tooltips="1" connect="1" arrows="1" fold="1" page="1" pageScale="1.5" pageWidth="1169" pageHeight="826" background="none" math="0" shadow="0">
      <root>
        <mxCell id="0" style=";html=1;" />
        <mxCell id="1" style=";html=1;" parent="0" />
        <mxCell id="NACjWepsxvIKKz_j-shE-1" value="LineStorage" style="swimlane;fontStyle=0;childLayout=stackLayout;horizontal=1;startSize=26;fillColor=none;horizontalStack=0;resizeParent=1;resizeParentMax=0;resizeLast=0;collapsible=1;marginBottom=0;" parent="1" vertex="1">
          <mxGeometry x="510" y="370" width="230" height="78" as="geometry" />
        </mxCell>
        <mxCell id="NACjWepsxvIKKz_j-shE-2" value="+ getWords: List&lt;String&gt;" style="text;strokeColor=none;fillColor=none;align=left;verticalAlign=top;spacingLeft=4;spacingRight=4;overflow=hidden;rotatable=0;points=[[0,0.5],[1,0.5]];portConstraint=eastwest;" parent="NACjWepsxvIKKz_j-shE-1" vertex="1">
          <mxGeometry y="26" width="230" height="26" as="geometry" />
        </mxCell>
        <mxCell id="NACjWepsxvIKKz_j-shE-3" value="+ getRecordFromLine: List&lt;String&gt;&#xa;" style="text;strokeColor=none;fillColor=none;align=left;verticalAlign=top;spacingLeft=4;spacingRight=4;overflow=hidden;rotatable=0;points=[[0,0.5],[1,0.5]];portConstraint=eastwest;" parent="NACjWepsxvIKKz_j-shE-1" vertex="1">
          <mxGeometry y="52" width="230" height="26" as="geometry" />
        </mxCell>
        <mxCell id="NACjWepsxvIKKz_j-shE-5" value="&lt;&lt;Interface&gt;&gt;&#xa;InputStrategy" style="swimlane;fontStyle=0;childLayout=stackLayout;horizontal=1;startSize=26;fillColor=none;horizontalStack=0;resizeParent=1;resizeParentMax=0;resizeLast=0;collapsible=1;marginBottom=0;" parent="1" vertex="1">
          <mxGeometry x="280" y="360" width="140" height="104" as="geometry" />
        </mxCell>
        <mxCell id="NACjWepsxvIKKz_j-shE-6" value="+ promptUser(): void" style="text;strokeColor=none;fillColor=none;align=left;verticalAlign=top;spacingLeft=4;spacingRight=4;overflow=hidden;rotatable=0;points=[[0,0.5],[1,0.5]];portConstraint=eastwest;" parent="NACjWepsxvIKKz_j-shE-5" vertex="1">
          <mxGeometry y="26" width="140" height="26" as="geometry" />
        </mxCell>
        <mxCell id="NACjWepsxvIKKz_j-shE-7" value="+ readFile: type" style="text;strokeColor=none;fillColor=none;align=left;verticalAlign=top;spacingLeft=4;spacingRight=4;overflow=hidden;rotatable=0;points=[[0,0.5],[1,0.5]];portConstraint=eastwest;" parent="NACjWepsxvIKKz_j-shE-5" vertex="1">
          <mxGeometry y="52" width="140" height="26" as="geometry" />
        </mxCell>
        <mxCell id="NACjWepsxvIKKz_j-shE-28" value="+ readConsoleInput: void " style="text;strokeColor=none;fillColor=none;align=left;verticalAlign=top;spacingLeft=4;spacingRight=4;overflow=hidden;rotatable=0;points=[[0,0.5],[1,0.5]];portConstraint=eastwest;" parent="NACjWepsxvIKKz_j-shE-5" vertex="1">
          <mxGeometry y="78" width="140" height="26" as="geometry" />
        </mxCell>
        <mxCell id="NACjWepsxvIKKz_j-shE-9" value="&lt;&lt;interface&gt;&gt;&#xa;Output" style="swimlane;fontStyle=0;childLayout=stackLayout;horizontal=1;startSize=26;fillColor=none;horizontalStack=0;resizeParent=1;resizeParentMax=0;resizeLast=0;collapsible=1;marginBottom=0;" parent="1" vertex="1">
          <mxGeometry x="530" y="724" width="140" height="104" as="geometry" />
        </mxCell>
        <mxCell id="NACjWepsxvIKKz_j-shE-10" value="+ writeToConsole: void" style="text;strokeColor=none;fillColor=none;align=left;verticalAlign=top;spacingLeft=4;spacingRight=4;overflow=hidden;rotatable=0;points=[[0,0.5],[1,0.5]];portConstraint=eastwest;" parent="NACjWepsxvIKKz_j-shE-9" vertex="1">
          <mxGeometry y="26" width="140" height="26" as="geometry" />
        </mxCell>
        <mxCell id="xiyJtsrTZFKxn2yRZmuU-19" value="+ generateFile: void" style="text;strokeColor=none;fillColor=none;align=left;verticalAlign=top;spacingLeft=4;spacingRight=4;overflow=hidden;rotatable=0;points=[[0,0.5],[1,0.5]];portConstraint=eastwest;" parent="NACjWepsxvIKKz_j-shE-9" vertex="1">
          <mxGeometry y="52" width="140" height="26" as="geometry" />
        </mxCell>
        <mxCell id="NACjWepsxvIKKz_j-shE-11" value="+ generateFile: void" style="text;strokeColor=none;fillColor=none;align=left;verticalAlign=top;spacingLeft=4;spacingRight=4;overflow=hidden;rotatable=0;points=[[0,0.5],[1,0.5]];portConstraint=eastwest;" parent="NACjWepsxvIKKz_j-shE-9" vertex="1">
          <mxGeometry y="78" width="140" height="26" as="geometry" />
        </mxCell>
        <mxCell id="NACjWepsxvIKKz_j-shE-13" value="CircularShifter" style="swimlane;fontStyle=0;childLayout=stackLayout;horizontal=1;startSize=26;fillColor=none;horizontalStack=0;resizeParent=1;resizeParentMax=0;resizeLast=0;collapsible=1;marginBottom=0;" parent="1" vertex="1">
          <mxGeometry x="820" y="359" width="200" height="100" as="geometry" />
        </mxCell>
        <mxCell id="xiyJtsrTZFKxn2yRZmuU-44" value="" style="endArrow=open;endFill=1;endSize=12;html=1;entryX=1;entryY=0.5;entryDx=0;entryDy=0;" parent="NACjWepsxvIKKz_j-shE-13" target="NACjWepsxvIKKz_j-shE-2" edge="1">
          <mxGeometry width="160" relative="1" as="geometry">
            <mxPoint y="49.5" as="sourcePoint" />
            <mxPoint x="160" y="49.5" as="targetPoint" />
          </mxGeometry>
        </mxCell>
        <mxCell id="NACjWepsxvIKKz_j-shE-14" value="+ shiftAtLine: String&#xa;+ getList: ArrayList&#xa;+ removeStopWords: List&lt;String&gt;" style="text;strokeColor=none;fillColor=none;align=left;verticalAlign=top;spacingLeft=4;spacingRight=4;overflow=hidden;rotatable=0;points=[[0,0.5],[1,0.5]];portConstraint=eastwest;" parent="NACjWepsxvIKKz_j-shE-13" vertex="1">
          <mxGeometry y="26" width="200" height="74" as="geometry" />
        </mxCell>
        <mxCell id="NACjWepsxvIKKz_j-shE-17" value="Alphabetizer" style="swimlane;fontStyle=0;childLayout=stackLayout;horizontal=1;startSize=26;fillColor=none;horizontalStack=0;resizeParent=1;resizeParentMax=0;resizeLast=0;collapsible=1;marginBottom=0;" parent="1" vertex="1">
          <mxGeometry x="650" y="550" width="210" height="48" as="geometry" />
        </mxCell>
        <mxCell id="NACjWepsxvIKKz_j-shE-18" value="+ sortList: ArrayList&lt;String&gt;" style="text;strokeColor=none;fillColor=none;align=left;verticalAlign=top;spacingLeft=4;spacingRight=4;overflow=hidden;rotatable=0;points=[[0,0.5],[1,0.5]];portConstraint=eastwest;" parent="NACjWepsxvIKKz_j-shE-17" vertex="1">
          <mxGeometry y="26" width="210" height="22" as="geometry" />
        </mxCell>
        <mxCell id="KInn-XDCP2g1NbNvd3t9-5" value="MasterControl" style="swimlane;fontStyle=0;childLayout=stackLayout;horizontal=1;startSize=26;fillColor=none;horizontalStack=0;resizeParent=1;resizeParentMax=0;resizeLast=0;collapsible=1;marginBottom=0;" parent="1" vertex="1">
          <mxGeometry x="80" y="750" width="140" height="52" as="geometry" />
        </mxCell>
        <mxCell id="KInn-XDCP2g1NbNvd3t9-6" value="         &lt;&lt;Interface&gt;&gt;" style="text;strokeColor=none;fillColor=none;align=left;verticalAlign=top;spacingLeft=4;spacingRight=4;overflow=hidden;rotatable=0;points=[[0,0.5],[1,0.5]];portConstraint=eastwest;" parent="KInn-XDCP2g1NbNvd3t9-5" vertex="1">
          <mxGeometry y="26" width="140" height="26" as="geometry" />
        </mxCell>
        <mxCell id="NuN0ZJSWD_hGJiA9L2En-2" value="" style="endArrow=open;endFill=1;endSize=12;html=1;entryX=-0.005;entryY=0.764;entryDx=0;entryDy=0;exitX=1.024;exitY=-0.077;exitDx=0;exitDy=0;exitPerimeter=0;entryPerimeter=0;" parent="1" source="NACjWepsxvIKKz_j-shE-7" target="NACjWepsxvIKKz_j-shE-2" edge="1">
          <mxGeometry width="160" relative="1" as="geometry">
            <mxPoint x="150" y="491" as="sourcePoint" />
            <mxPoint x="300" y="490.5" as="targetPoint" />
          </mxGeometry>
        </mxCell>
        <mxCell id="KInn-XDCP2g1NbNvd3t9-1" value="OutputDecorator" style="swimlane;fontStyle=0;childLayout=stackLayout;horizontal=1;startSize=26;fillColor=none;horizontalStack=0;resizeParent=1;resizeParentMax=0;resizeLast=0;collapsible=1;marginBottom=0;" parent="1" vertex="1">
          <mxGeometry x="620" y="910" width="140" height="50" as="geometry" />
        </mxCell>
        <mxCell id="KInn-XDCP2g1NbNvd3t9-2" value="+ getPropValues: String" style="text;strokeColor=none;fillColor=none;align=left;verticalAlign=top;spacingLeft=4;spacingRight=4;overflow=hidden;rotatable=0;points=[[0,0.5],[1,0.5]];portConstraint=eastwest;" parent="KInn-XDCP2g1NbNvd3t9-1" vertex="1">
          <mxGeometry y="26" width="140" height="24" as="geometry" />
        </mxCell>
        <mxCell id="xiyJtsrTZFKxn2yRZmuU-11" value="Header" style="swimlane;fontStyle=0;childLayout=stackLayout;horizontal=1;startSize=26;fillColor=none;horizontalStack=0;resizeParent=1;resizeParentMax=0;resizeLast=0;collapsible=1;marginBottom=0;" parent="1" vertex="1">
          <mxGeometry x="590" y="1010" width="140" height="78" as="geometry" />
        </mxCell>
        <mxCell id="xiyJtsrTZFKxn2yRZmuU-12" value="+ field: type" style="text;strokeColor=none;fillColor=none;align=left;verticalAlign=top;spacingLeft=4;spacingRight=4;overflow=hidden;rotatable=0;points=[[0,0.5],[1,0.5]];portConstraint=eastwest;" parent="xiyJtsrTZFKxn2yRZmuU-11" vertex="1">
          <mxGeometry y="26" width="140" height="26" as="geometry" />
        </mxCell>
        <mxCell id="xiyJtsrTZFKxn2yRZmuU-14" value="+ field: type" style="text;strokeColor=none;fillColor=none;align=left;verticalAlign=top;spacingLeft=4;spacingRight=4;overflow=hidden;rotatable=0;points=[[0,0.5],[1,0.5]];portConstraint=eastwest;" parent="xiyJtsrTZFKxn2yRZmuU-11" vertex="1">
          <mxGeometry y="52" width="140" height="26" as="geometry" />
        </mxCell>
        <mxCell id="0uEQde6LkrN5Ys96eJcr-7" value="Extends" style="endArrow=block;endSize=16;endFill=0;html=1;entryX=0.371;entryY=1.125;entryDx=0;entryDy=0;entryPerimeter=0;" edge="1" parent="xiyJtsrTZFKxn2yRZmuU-11" target="KInn-XDCP2g1NbNvd3t9-2">
          <mxGeometry width="160" relative="1" as="geometry">
            <mxPoint x="50" as="sourcePoint" />
            <mxPoint x="210" as="targetPoint" />
          </mxGeometry>
        </mxCell>
        <mxCell id="xiyJtsrTZFKxn2yRZmuU-15" value="Footer" style="swimlane;fontStyle=0;childLayout=stackLayout;horizontal=1;startSize=26;fillColor=none;horizontalStack=0;resizeParent=1;resizeParentMax=0;resizeLast=0;collapsible=1;marginBottom=0;" parent="1" vertex="1">
          <mxGeometry x="780" y="1010" width="140" height="78" as="geometry" />
        </mxCell>
        <mxCell id="xiyJtsrTZFKxn2yRZmuU-16" value="+ field: type" style="text;strokeColor=none;fillColor=none;align=left;verticalAlign=top;spacingLeft=4;spacingRight=4;overflow=hidden;rotatable=0;points=[[0,0.5],[1,0.5]];portConstraint=eastwest;" parent="xiyJtsrTZFKxn2yRZmuU-15" vertex="1">
          <mxGeometry y="26" width="140" height="26" as="geometry" />
        </mxCell>
        <mxCell id="xiyJtsrTZFKxn2yRZmuU-17" value="+ field: type" style="text;strokeColor=none;fillColor=none;align=left;verticalAlign=top;spacingLeft=4;spacingRight=4;overflow=hidden;rotatable=0;points=[[0,0.5],[1,0.5]];portConstraint=eastwest;" parent="xiyJtsrTZFKxn2yRZmuU-15" vertex="1">
          <mxGeometry y="52" width="140" height="26" as="geometry" />
        </mxCell>
        <mxCell id="0uEQde6LkrN5Ys96eJcr-6" value="Extends" style="endArrow=block;endSize=16;endFill=0;html=1;entryX=0.814;entryY=1.125;entryDx=0;entryDy=0;entryPerimeter=0;" edge="1" parent="xiyJtsrTZFKxn2yRZmuU-15" target="KInn-XDCP2g1NbNvd3t9-2">
          <mxGeometry width="160" relative="1" as="geometry">
            <mxPoint x="60" as="sourcePoint" />
            <mxPoint x="220" as="targetPoint" />
          </mxGeometry>
        </mxCell>
        <mxCell id="xiyJtsrTZFKxn2yRZmuU-20" value="" style="endArrow=open;html=1;endSize=12;startArrow=diamondThin;startSize=14;startFill=0;edgeStyle=orthogonalEdgeStyle;align=left;verticalAlign=bottom;exitX=0.5;exitY=0;exitDx=0;exitDy=0;" parent="1" source="KInn-XDCP2g1NbNvd3t9-1" target="NACjWepsxvIKKz_j-shE-9" edge="1">
          <mxGeometry x="-1" y="3" relative="1" as="geometry">
            <mxPoint x="797" y="824.5" as="sourcePoint" />
            <mxPoint x="957" y="824.5" as="targetPoint" />
            <Array as="points">
              <mxPoint x="690" y="850" />
              <mxPoint x="797" y="850" />
              <mxPoint x="797" y="710" />
            </Array>
          </mxGeometry>
        </mxCell>
        <mxCell id="xiyJtsrTZFKxn2yRZmuU-26" value="" style="endArrow=open;endFill=1;endSize=12;html=1;entryX=0.5;entryY=1;entryDx=0;entryDy=0;exitX=0;exitY=0.5;exitDx=0;exitDy=0;" parent="1" source="KInn-XDCP2g1NbNvd3t9-1" target="NACjWepsxvIKKz_j-shE-9" edge="1">
          <mxGeometry width="160" relative="1" as="geometry">
            <mxPoint x="650" y="850" as="sourcePoint" />
            <mxPoint x="780" y="850" as="targetPoint" />
            <Array as="points">
              <mxPoint x="590" y="935" />
            </Array>
          </mxGeometry>
        </mxCell>
        <mxCell id="xiyJtsrTZFKxn2yRZmuU-27" value="ConfigLoader&#xa;(context)" style="swimlane;fontStyle=0;childLayout=stackLayout;horizontal=1;startSize=26;fillColor=none;horizontalStack=0;resizeParent=1;resizeParentMax=0;resizeLast=0;collapsible=1;marginBottom=0;" parent="1" vertex="1">
          <mxGeometry x="50" y="360" width="140" height="104" as="geometry" />
        </mxCell>
        <mxCell id="xiyJtsrTZFKxn2yRZmuU-28" value="+ field: type" style="text;strokeColor=none;fillColor=none;align=left;verticalAlign=top;spacingLeft=4;spacingRight=4;overflow=hidden;rotatable=0;points=[[0,0.5],[1,0.5]];portConstraint=eastwest;" parent="xiyJtsrTZFKxn2yRZmuU-27" vertex="1">
          <mxGeometry y="26" width="140" height="26" as="geometry" />
        </mxCell>
        <mxCell id="xiyJtsrTZFKxn2yRZmuU-29" value="+ field: type" style="text;strokeColor=none;fillColor=none;align=left;verticalAlign=top;spacingLeft=4;spacingRight=4;overflow=hidden;rotatable=0;points=[[0,0.5],[1,0.5]];portConstraint=eastwest;" parent="xiyJtsrTZFKxn2yRZmuU-27" vertex="1">
          <mxGeometry y="52" width="140" height="26" as="geometry" />
        </mxCell>
        <mxCell id="xiyJtsrTZFKxn2yRZmuU-30" value="+ field: type" style="text;strokeColor=none;fillColor=none;align=left;verticalAlign=top;spacingLeft=4;spacingRight=4;overflow=hidden;rotatable=0;points=[[0,0.5],[1,0.5]];portConstraint=eastwest;" parent="xiyJtsrTZFKxn2yRZmuU-27" vertex="1">
          <mxGeometry y="78" width="140" height="26" as="geometry" />
        </mxCell>
        <mxCell id="xiyJtsrTZFKxn2yRZmuU-31" value="1" style="endArrow=open;html=1;endSize=12;startArrow=diamondThin;startSize=14;startFill=0;edgeStyle=orthogonalEdgeStyle;align=left;verticalAlign=bottom;" parent="1" edge="1">
          <mxGeometry x="-1" y="3" relative="1" as="geometry">
            <mxPoint x="190" y="420" as="sourcePoint" />
            <mxPoint x="280" y="420" as="targetPoint" />
          </mxGeometry>
        </mxCell>
        <mxCell id="xiyJtsrTZFKxn2yRZmuU-32" value="FileInput" style="swimlane;fontStyle=1;align=center;verticalAlign=top;childLayout=stackLayout;horizontal=1;startSize=26;horizontalStack=0;resizeParent=1;resizeParentMax=0;resizeLast=0;collapsible=1;marginBottom=0;" parent="1" vertex="1">
          <mxGeometry x="360" y="540" width="160" height="86" as="geometry" />
        </mxCell>
        <mxCell id="xiyJtsrTZFKxn2yRZmuU-33" value="+ field: type" style="text;strokeColor=none;fillColor=none;align=left;verticalAlign=top;spacingLeft=4;spacingRight=4;overflow=hidden;rotatable=0;points=[[0,0.5],[1,0.5]];portConstraint=eastwest;" parent="xiyJtsrTZFKxn2yRZmuU-32" vertex="1">
          <mxGeometry y="26" width="160" height="26" as="geometry" />
        </mxCell>
        <mxCell id="xiyJtsrTZFKxn2yRZmuU-34" value="" style="line;strokeWidth=1;fillColor=none;align=left;verticalAlign=middle;spacingTop=-1;spacingLeft=3;spacingRight=3;rotatable=0;labelPosition=right;points=[];portConstraint=eastwest;" parent="xiyJtsrTZFKxn2yRZmuU-32" vertex="1">
          <mxGeometry y="52" width="160" height="8" as="geometry" />
        </mxCell>
        <mxCell id="xiyJtsrTZFKxn2yRZmuU-35" value="+ method(type): type" style="text;strokeColor=none;fillColor=none;align=left;verticalAlign=top;spacingLeft=4;spacingRight=4;overflow=hidden;rotatable=0;points=[[0,0.5],[1,0.5]];portConstraint=eastwest;" parent="xiyJtsrTZFKxn2yRZmuU-32" vertex="1">
          <mxGeometry y="60" width="160" height="26" as="geometry" />
        </mxCell>
        <mxCell id="xiyJtsrTZFKxn2yRZmuU-36" value="ConsoleInput&#xa;" style="swimlane;fontStyle=1;align=center;verticalAlign=top;childLayout=stackLayout;horizontal=1;startSize=26;horizontalStack=0;resizeParent=1;resizeParentMax=0;resizeLast=0;collapsible=1;marginBottom=0;" parent="1" vertex="1">
          <mxGeometry x="150" y="540" width="160" height="86" as="geometry" />
        </mxCell>
        <mxCell id="xiyJtsrTZFKxn2yRZmuU-37" value="+ field: type" style="text;strokeColor=none;fillColor=none;align=left;verticalAlign=top;spacingLeft=4;spacingRight=4;overflow=hidden;rotatable=0;points=[[0,0.5],[1,0.5]];portConstraint=eastwest;" parent="xiyJtsrTZFKxn2yRZmuU-36" vertex="1">
          <mxGeometry y="26" width="160" height="26" as="geometry" />
        </mxCell>
        <mxCell id="xiyJtsrTZFKxn2yRZmuU-38" value="" style="line;strokeWidth=1;fillColor=none;align=left;verticalAlign=middle;spacingTop=-1;spacingLeft=3;spacingRight=3;rotatable=0;labelPosition=right;points=[];portConstraint=eastwest;" parent="xiyJtsrTZFKxn2yRZmuU-36" vertex="1">
          <mxGeometry y="52" width="160" height="8" as="geometry" />
        </mxCell>
        <mxCell id="xiyJtsrTZFKxn2yRZmuU-39" value="+ method(type): type" style="text;strokeColor=none;fillColor=none;align=left;verticalAlign=top;spacingLeft=4;spacingRight=4;overflow=hidden;rotatable=0;points=[[0,0.5],[1,0.5]];portConstraint=eastwest;" parent="xiyJtsrTZFKxn2yRZmuU-36" vertex="1">
          <mxGeometry y="60" width="160" height="26" as="geometry" />
        </mxCell>
        <mxCell id="xiyJtsrTZFKxn2yRZmuU-45" value="" style="endArrow=open;endFill=1;endSize=12;html=1;exitX=0.422;exitY=0.962;exitDx=0;exitDy=0;exitPerimeter=0;entryX=0.5;entryY=0;entryDx=0;entryDy=0;" parent="1" source="NACjWepsxvIKKz_j-shE-3" target="NACjWepsxvIKKz_j-shE-9" edge="1">
          <mxGeometry width="160" relative="1" as="geometry">
            <mxPoint x="490" y="690" as="sourcePoint" />
            <mxPoint x="650" y="690" as="targetPoint" />
          </mxGeometry>
        </mxCell>
        <mxCell id="ow8rQZJFajYAejyWgYVR-1" value="" style="endArrow=block;dashed=1;endFill=0;endSize=12;html=1;exitX=0.25;exitY=0;exitDx=0;exitDy=0;" parent="1" source="KInn-XDCP2g1NbNvd3t9-5" target="xiyJtsrTZFKxn2yRZmuU-30" edge="1">
          <mxGeometry width="160" relative="1" as="geometry">
            <mxPoint x="50" y="750" as="sourcePoint" />
            <mxPoint x="210" y="750" as="targetPoint" />
          </mxGeometry>
        </mxCell>
        <mxCell id="UvIc5zSm8IIAJlQLUfuQ-1" value="LineCounterTop" style="swimlane;fontStyle=0;childLayout=stackLayout;horizontal=1;startSize=26;fillColor=none;horizontalStack=0;resizeParent=1;resizeParentMax=0;resizeLast=0;collapsible=1;marginBottom=0;" parent="1" vertex="1">
          <mxGeometry x="850" y="760" width="140" height="104" as="geometry" />
        </mxCell>
        <mxCell id="UvIc5zSm8IIAJlQLUfuQ-2" value="+ field: type" style="text;strokeColor=none;fillColor=none;align=left;verticalAlign=top;spacingLeft=4;spacingRight=4;overflow=hidden;rotatable=0;points=[[0,0.5],[1,0.5]];portConstraint=eastwest;" parent="UvIc5zSm8IIAJlQLUfuQ-1" vertex="1">
          <mxGeometry y="26" width="140" height="26" as="geometry" />
        </mxCell>
        <mxCell id="UvIc5zSm8IIAJlQLUfuQ-6" value="+ field: type" style="text;strokeColor=none;fillColor=none;align=left;verticalAlign=top;spacingLeft=4;spacingRight=4;overflow=hidden;rotatable=0;points=[[0,0.5],[1,0.5]];portConstraint=eastwest;" parent="UvIc5zSm8IIAJlQLUfuQ-1" vertex="1">
          <mxGeometry y="52" width="140" height="26" as="geometry" />
        </mxCell>
        <mxCell id="UvIc5zSm8IIAJlQLUfuQ-3" value="+ field: type" style="text;strokeColor=none;fillColor=none;align=left;verticalAlign=top;spacingLeft=4;spacingRight=4;overflow=hidden;rotatable=0;points=[[0,0.5],[1,0.5]];portConstraint=eastwest;" parent="UvIc5zSm8IIAJlQLUfuQ-1" vertex="1">
          <mxGeometry y="78" width="140" height="26" as="geometry" />
        </mxCell>
        <mxCell id="UvIc5zSm8IIAJlQLUfuQ-8" value="LineCounterBottom" style="swimlane;fontStyle=0;childLayout=stackLayout;horizontal=1;startSize=26;fillColor=none;horizontalStack=0;resizeParent=1;resizeParentMax=0;resizeLast=0;collapsible=1;marginBottom=0;" parent="1" vertex="1">
          <mxGeometry x="860" y="880" width="140" height="104" as="geometry" />
        </mxCell>
        <mxCell id="UvIc5zSm8IIAJlQLUfuQ-9" value="+ field: type" style="text;strokeColor=none;fillColor=none;align=left;verticalAlign=top;spacingLeft=4;spacingRight=4;overflow=hidden;rotatable=0;points=[[0,0.5],[1,0.5]];portConstraint=eastwest;" parent="UvIc5zSm8IIAJlQLUfuQ-8" vertex="1">
          <mxGeometry y="26" width="140" height="26" as="geometry" />
        </mxCell>
        <mxCell id="UvIc5zSm8IIAJlQLUfuQ-10" value="+ field: type" style="text;strokeColor=none;fillColor=none;align=left;verticalAlign=top;spacingLeft=4;spacingRight=4;overflow=hidden;rotatable=0;points=[[0,0.5],[1,0.5]];portConstraint=eastwest;" parent="UvIc5zSm8IIAJlQLUfuQ-8" vertex="1">
          <mxGeometry y="52" width="140" height="26" as="geometry" />
        </mxCell>
        <mxCell id="UvIc5zSm8IIAJlQLUfuQ-11" value="+ field: type" style="text;strokeColor=none;fillColor=none;align=left;verticalAlign=top;spacingLeft=4;spacingRight=4;overflow=hidden;rotatable=0;points=[[0,0.5],[1,0.5]];portConstraint=eastwest;" parent="UvIc5zSm8IIAJlQLUfuQ-8" vertex="1">
          <mxGeometry y="78" width="140" height="26" as="geometry" />
        </mxCell>
        <mxCell id="UvIc5zSm8IIAJlQLUfuQ-13" value="FileOutput" style="swimlane;fontStyle=1;align=center;verticalAlign=top;childLayout=stackLayout;horizontal=1;startSize=26;horizontalStack=0;resizeParent=1;resizeParentMax=0;resizeLast=0;collapsible=1;marginBottom=0;" parent="1" vertex="1">
          <mxGeometry x="260" y="844" width="160" height="86" as="geometry" />
        </mxCell>
        <mxCell id="UvIc5zSm8IIAJlQLUfuQ-14" value="+ field: type" style="text;strokeColor=none;fillColor=none;align=left;verticalAlign=top;spacingLeft=4;spacingRight=4;overflow=hidden;rotatable=0;points=[[0,0.5],[1,0.5]];portConstraint=eastwest;" parent="UvIc5zSm8IIAJlQLUfuQ-13" vertex="1">
          <mxGeometry y="26" width="160" height="26" as="geometry" />
        </mxCell>
        <mxCell id="UvIc5zSm8IIAJlQLUfuQ-15" value="" style="line;strokeWidth=1;fillColor=none;align=left;verticalAlign=middle;spacingTop=-1;spacingLeft=3;spacingRight=3;rotatable=0;labelPosition=right;points=[];portConstraint=eastwest;" parent="UvIc5zSm8IIAJlQLUfuQ-13" vertex="1">
          <mxGeometry y="52" width="160" height="8" as="geometry" />
        </mxCell>
        <mxCell id="UvIc5zSm8IIAJlQLUfuQ-16" value="+ method(type): type" style="text;strokeColor=none;fillColor=none;align=left;verticalAlign=top;spacingLeft=4;spacingRight=4;overflow=hidden;rotatable=0;points=[[0,0.5],[1,0.5]];portConstraint=eastwest;" parent="UvIc5zSm8IIAJlQLUfuQ-13" vertex="1">
          <mxGeometry y="60" width="160" height="26" as="geometry" />
        </mxCell>
        <mxCell id="UvIc5zSm8IIAJlQLUfuQ-18" value="ConsoleOutput" style="swimlane;fontStyle=1;align=center;verticalAlign=top;childLayout=stackLayout;horizontal=1;startSize=26;horizontalStack=0;resizeParent=1;resizeParentMax=0;resizeLast=0;collapsible=1;marginBottom=0;" parent="1" vertex="1">
          <mxGeometry x="260" y="704" width="160" height="86" as="geometry" />
        </mxCell>
        <mxCell id="UvIc5zSm8IIAJlQLUfuQ-20" value="+ field: type" style="text;strokeColor=none;fillColor=none;align=left;verticalAlign=top;spacingLeft=4;spacingRight=4;overflow=hidden;rotatable=0;points=[[0,0.5],[1,0.5]];portConstraint=eastwest;" parent="UvIc5zSm8IIAJlQLUfuQ-18" vertex="1">
          <mxGeometry y="26" width="160" height="26" as="geometry" />
        </mxCell>
        <mxCell id="UvIc5zSm8IIAJlQLUfuQ-21" value="" style="line;strokeWidth=1;fillColor=none;align=left;verticalAlign=middle;spacingTop=-1;spacingLeft=3;spacingRight=3;rotatable=0;labelPosition=right;points=[];portConstraint=eastwest;" parent="UvIc5zSm8IIAJlQLUfuQ-18" vertex="1">
          <mxGeometry y="52" width="160" height="8" as="geometry" />
        </mxCell>
        <mxCell id="UvIc5zSm8IIAJlQLUfuQ-22" value="+ method(type): type" style="text;strokeColor=none;fillColor=none;align=left;verticalAlign=top;spacingLeft=4;spacingRight=4;overflow=hidden;rotatable=0;points=[[0,0.5],[1,0.5]];portConstraint=eastwest;" parent="UvIc5zSm8IIAJlQLUfuQ-18" vertex="1">
          <mxGeometry y="60" width="160" height="26" as="geometry" />
        </mxCell>
        <mxCell id="0uEQde6LkrN5Ys96eJcr-1" value="Extends" style="endArrow=block;endSize=16;endFill=0;html=1;exitX=0.367;exitY=0;exitDx=0;exitDy=0;entryX=0.917;entryY=1.154;entryDx=0;entryDy=0;entryPerimeter=0;exitPerimeter=0;" edge="1" parent="1" source="NACjWepsxvIKKz_j-shE-17" target="NACjWepsxvIKKz_j-shE-3">
          <mxGeometry width="160" relative="1" as="geometry">
            <mxPoint x="733.5" y="550" as="sourcePoint" />
            <mxPoint x="711" y="800" as="targetPoint" />
          </mxGeometry>
        </mxCell>
        <mxCell id="0uEQde6LkrN5Ys96eJcr-2" value="Extends" style="endArrow=block;endSize=16;endFill=0;html=1;entryX=0.8;entryY=1.077;entryDx=0;entryDy=0;entryPerimeter=0;" edge="1" parent="1" target="NACjWepsxvIKKz_j-shE-28">
          <mxGeometry width="160" relative="1" as="geometry">
            <mxPoint x="440" y="539" as="sourcePoint" />
            <mxPoint x="600" y="539" as="targetPoint" />
          </mxGeometry>
        </mxCell>
        <mxCell id="0uEQde6LkrN5Ys96eJcr-3" value="Extends" style="endArrow=block;endSize=16;endFill=0;html=1;entryX=0.414;entryY=1.115;entryDx=0;entryDy=0;entryPerimeter=0;" edge="1" parent="1" target="NACjWepsxvIKKz_j-shE-28">
          <mxGeometry width="160" relative="1" as="geometry">
            <mxPoint x="220" y="539" as="sourcePoint" />
            <mxPoint x="380" y="539" as="targetPoint" />
          </mxGeometry>
        </mxCell>
        <mxCell id="0uEQde6LkrN5Ys96eJcr-4" value="Extends" style="endArrow=block;endSize=16;endFill=0;html=1;entryX=0;entryY=0.192;entryDx=0;entryDy=0;entryPerimeter=0;exitX=1;exitY=0.5;exitDx=0;exitDy=0;" edge="1" parent="1" source="UvIc5zSm8IIAJlQLUfuQ-14" target="NACjWepsxvIKKz_j-shE-11">
          <mxGeometry width="160" relative="1" as="geometry">
            <mxPoint x="388" y="840" as="sourcePoint" />
            <mxPoint x="340" y="780.002" as="targetPoint" />
          </mxGeometry>
        </mxCell>
        <mxCell id="0uEQde6LkrN5Ys96eJcr-5" value="Extends" style="endArrow=block;endSize=16;endFill=0;html=1;entryX=-0.029;entryY=0.923;entryDx=0;entryDy=0;entryPerimeter=0;" edge="1" parent="1" target="NACjWepsxvIKKz_j-shE-10">
          <mxGeometry width="160" relative="1" as="geometry">
            <mxPoint x="420" y="750" as="sourcePoint" />
            <mxPoint x="580" y="750" as="targetPoint" />
          </mxGeometry>
        </mxCell>
        <mxCell id="0uEQde6LkrN5Ys96eJcr-9" value="Extends" style="endArrow=block;endSize=16;endFill=0;html=1;entryX=1;entryY=0.5;entryDx=0;entryDy=0;exitX=-0.021;exitY=0.115;exitDx=0;exitDy=0;exitPerimeter=0;" edge="1" parent="1" source="UvIc5zSm8IIAJlQLUfuQ-10" target="KInn-XDCP2g1NbNvd3t9-1">
          <mxGeometry width="160" relative="1" as="geometry">
            <mxPoint x="870" y="932" as="sourcePoint" />
            <mxPoint x="1030" y="932" as="targetPoint" />
          </mxGeometry>
        </mxCell>
        <mxCell id="0uEQde6LkrN5Ys96eJcr-10" value="Extends" style="endArrow=block;endSize=16;endFill=0;html=1;entryX=1;entryY=0.5;entryDx=0;entryDy=0;exitX=0.029;exitY=0.962;exitDx=0;exitDy=0;exitPerimeter=0;" edge="1" parent="1" source="UvIc5zSm8IIAJlQLUfuQ-3">
          <mxGeometry width="160" relative="1" as="geometry">
            <mxPoint x="857.06" y="909" as="sourcePoint" />
            <mxPoint x="760" y="909.01" as="targetPoint" />
          </mxGeometry>
        </mxCell>
        <mxCell id="0uEQde6LkrN5Ys96eJcr-11" value="Line" style="swimlane;fontStyle=1;align=center;verticalAlign=top;childLayout=stackLayout;horizontal=1;startSize=26;horizontalStack=0;resizeParent=1;resizeParentMax=0;resizeLast=0;collapsible=1;marginBottom=0;" vertex="1" parent="1">
          <mxGeometry x="545" y="250" width="160" height="86" as="geometry" />
        </mxCell>
        <mxCell id="0uEQde6LkrN5Ys96eJcr-12" value="+ field: type" style="text;strokeColor=none;fillColor=none;align=left;verticalAlign=top;spacingLeft=4;spacingRight=4;overflow=hidden;rotatable=0;points=[[0,0.5],[1,0.5]];portConstraint=eastwest;" vertex="1" parent="0uEQde6LkrN5Ys96eJcr-11">
          <mxGeometry y="26" width="160" height="26" as="geometry" />
        </mxCell>
        <mxCell id="0uEQde6LkrN5Ys96eJcr-13" value="" style="line;strokeWidth=1;fillColor=none;align=left;verticalAlign=middle;spacingTop=-1;spacingLeft=3;spacingRight=3;rotatable=0;labelPosition=right;points=[];portConstraint=eastwest;" vertex="1" parent="0uEQde6LkrN5Ys96eJcr-11">
          <mxGeometry y="52" width="160" height="8" as="geometry" />
        </mxCell>
        <mxCell id="0uEQde6LkrN5Ys96eJcr-14" value="+ method(type): type" style="text;strokeColor=none;fillColor=none;align=left;verticalAlign=top;spacingLeft=4;spacingRight=4;overflow=hidden;rotatable=0;points=[[0,0.5],[1,0.5]];portConstraint=eastwest;" vertex="1" parent="0uEQde6LkrN5Ys96eJcr-11">
          <mxGeometry y="60" width="160" height="26" as="geometry" />
        </mxCell>
        <mxCell id="0uEQde6LkrN5Ys96eJcr-15" value="" style="endArrow=open;endFill=1;endSize=12;html=1;" edge="1" parent="1" source="0uEQde6LkrN5Ys96eJcr-14" target="NACjWepsxvIKKz_j-shE-1">
          <mxGeometry width="160" relative="1" as="geometry">
            <mxPoint x="640" y="660" as="sourcePoint" />
            <mxPoint x="800" y="660" as="targetPoint" />
          </mxGeometry>
        </mxCell>
      </root>
    </mxGraphModel>
  </diagram>
</mxfile>
